<svg width="20" height="31" fill="none" xmlns="http://www.w3.org/2000/svg"><path d="M20 26v4.5c0 .275-.225.5-.5.5H11l3.5-8H17a3 3 0 013 3zM5.5 23L9 31H.5a.501.501 0 01-.5-.5V26a3 3 0 013-3h2.5z" fill="#FFCE54"/><path d="M7 23l2 1 1-.5 1 .5 2-1h1.5L11 31H9l-3.5-8H7z" fill="#E6E9ED"/><path d="M17 23h-2a3 3 0 013 3v4.5c0 .275-.225.5-.5.5h2c.275 0 .5-.225.5-.5V26a3 3 0 00-3-3z" fill="#F6BB42"/><path d="M13 20.375V23l-2 1-1-.5-1 .5-2-1v-2.625a7.51 7.51 0 006 0z" fill="#F5F7FA"/><path d="M17.75 0a2.25 2.25 0 110 4.5 2.25 2.25 0 010-4.5z" fill="#353B44"/><path d="M2.25 0a2.253 2.253 0 012.035 3.21c-.2.425-.535.78-.946 1.01a2.23 2.23 0 01-1.089.28 2.25 2.25 0 010-4.5z" fill="#434A54"/><path d="M8 10.5H1.5v-1c0-1.995.69-3.83 1.84-5.28.41-.23.745-.585.946-1.01A8.455 8.455 0 0110 1c2.195 0 4.19.83 5.7 2.195l.005-.005c.205.44.54.795.955 1.03A8.47 8.47 0 0118.5 9.5v1H8z" fill="#656D78"/><path d="M16.66 4.22a2.297 2.297 0 01-.955-1.03l-.005.005A8.464 8.464 0 0010 1c-.338 0-.669.026-.996.065 4.22.497 7.496 4.081 7.496 8.435v1h2v-1a8.47 8.47 0 00-1.84-5.28z" fill="#434A54"/><path d="M10.015 26.5a.502.502 0 01-.502-.5c0-.276.22-.5.496-.5h.006a.5.5 0 110 1zm0 2a.502.502 0 01-.502-.5c0-.276.22-.5.496-.5h.006a.5.5 0 110 1z" fill="#656D78"/><path d="M4 11a.5.5 0 01-.5-.5v-1a.5.5 0 111 0v1a.5.5 0 01-.5.5zm2 0a.5.5 0 01-.5-.5v-1a.5.5 0 111 0v1a.5.5 0 01-.5.5zm2 0a.5.5 0 01-.5-.5v-1a.5.5 0 111 0v1a.5.5 0 01-.5.5zm2 0a.5.5 0 01-.5-.5v-1a.5.5 0 111 0v1a.5.5 0 01-.5.5zm2 0a.5.5 0 01-.5-.5v-1a.5.5 0 111 0v1a.5.5 0 01-.5.5zm2 0a.5.5 0 01-.5-.5v-1a.5.5 0 111 0v1a.5.5 0 01-.5.5zm2 0a.5.5 0 01-.5-.5v-1a.5.5 0 111 0v1a.5.5 0 01-.5.5z" fill="#434A54"/><path d="M17.5 10.5v3A7.497 7.497 0 017 20.375 7.492 7.492 0 012.5 13.5v-3h15z" fill="#EAC6BB"/><path d="M16 10.5h-.5v3c0 3.075-1.85 5.72-4.5 6.875a7.54 7.54 0 01-2 .55c.328.044.66.075 1 .075a7.497 7.497 0 007.5-7.5v-3H16z" fill="#D3B1A9"/></svg>