<svg width="30" height="30" fill="none" xmlns="http://www.w3.org/2000/svg"><path d="M21.885 19.233c0 1.449-3.168 2.622-7.075 2.622-3.908 0-7.076-1.173-7.076-2.622 0-1.448 3.168-2.622 7.076-2.622 3.907 0 7.075 1.174 7.075 2.622z" fill="#A0D468"/><path d="M26.601 16.816c0 1.44-5.325 2.608-11.894 2.608S2.813 18.256 2.813 16.816c0-1.44 5.325-2.607 11.894-2.607s11.894 1.167 11.894 2.607z" fill="#A0D468"/><path d="M19.375 7.735l.507-2.734-1.035-2.227-1.425-1.562-1.797-.625h-2.031l-1.601.976-1.251 1.328-.43 3.359.93 2.071.594 1.524.117 3.398-.274 3.008 1.755.508h3.129l1.758-.352-.509-3.203.255-3.79 1.308-1.679z" fill="#FBFDFF"/><path d="M18.555 21.68l-.156 1.973-.41 1.68-.782 1.113-.937.82-2.09-.157-1.426-.644-1.269-1.836-.098-2.949-1.933-.606.176.781-.176 2.872.859 2.09 1.7 1.504 2.245 1.015 1.875-.136 2.07-.82 2.09-2.09.216-2.755v-2.85l-1.954.995z" fill="#FFCE54"/><path d="M26.424 14.848c-.626-.311-1.503-.587-2.609-.82-1.406-.296-3.104-.507-4.954-.62-.175-1.372.069-2.988.268-3.85a5.419 5.419 0 001.88-4.114A5.45 5.45 0 0015.564 0a5.45 5.45 0 00-5.444 5.444c0 1.59.682 3.076 1.877 4.112.083.372.262 1.263.316 2.273a8.884 8.884 0 01-.041 1.578c-1.852.114-3.552.325-4.959.621-1.105.233-1.982.509-2.608.82-.821.41-1.238.908-1.238 1.483 0 .575.417 1.074 1.238 1.483.614.305 1.47.576 2.547.806.475.737 1.258 1.386 2.263 1.9v2.465a6.055 6.055 0 006.049 6.047 6.055 6.055 0 006.048-6.047v-2.662c.795-.458 1.425-1.006 1.843-1.618.122-.023.241-.047.36-.071 1.105-.233 1.982-.509 2.608-.82.82-.41 1.237-.908 1.237-1.483 0-.575-.416-1.074-1.238-1.483zM11.33 5.444c0-2.335 1.9-4.234 4.234-4.234a4.238 4.238 0 014.234 4.234c0 1.292-.58 2.496-1.589 3.305a.607.607 0 00-.207.321c-.012.05-.317 1.246-.394 2.688-.085 1.584.131 2.83.645 3.72-.51.128-1.375.249-2.697.249-1.389 0-2.212-.13-2.678-.25.513-.886.729-2.13.643-3.713-.077-1.444-.383-2.643-.395-2.694a.607.607 0 00-.208-.321 4.216 4.216 0 01-1.588-3.305zm9.072 17.54a4.844 4.844 0 01-4.838 4.838 4.844 4.844 0 01-4.839-4.837v-1.95c.194.068.393.132.597.192v1.758a4.24 4.24 0 004.234 4.233c2.335 0 4.233-1.9 4.233-4.233V21.12c.211-.069.416-.142.613-.22v2.085zm-7.87-1.468c.889.168 1.847.259 2.85.259 1.135 0 2.213-.117 3.198-.33v1.54a3.027 3.027 0 01-3.024 3.023 3.027 3.027 0 01-3.025-3.023v-1.47zm8.257-2.121c-1.434.755-3.355 1.17-5.407 1.17-2.053 0-3.973-.416-5.407-1.17a6.37 6.37 0 01-.7-.427c1.863.251 4.029.388 6.289.388 2.082 0 4.083-.116 5.843-.332a6.21 6.21 0 01-.619.37zm2.497-1.888c-2.097.412-4.84.638-7.722.638-2.883 0-5.625-.226-7.723-.638-2.587-.508-3.081-1.066-3.155-1.176.074-.11.568-.668 3.155-1.176 1.192-.234 2.592-.408 4.108-.515a2.19 2.19 0 01-.441.658.604.604 0 00-.02.836c.22.241 1.057.801 4.068.801 3.005 0 3.852-.555 4.077-.794a.605.605 0 00-.011-.841 2.25 2.25 0 01-.44-.66c1.514.107 2.913.281 4.104.515 2.587.508 3.082 1.066 3.156 1.176-.074.11-.569.668-3.156 1.176z" fill="#525252"/></svg>