<svg width="23" height="29" fill="none" xmlns="http://www.w3.org/2000/svg"><path d="M18.825 7.632v3.561a7.625 7.625 0 01-7.632 7.632 7.628 7.628 0 01-3.561-.88 7.635 7.635 0 01-4.07-6.752V7.632A7.628 7.628 0 0111.192 0a7.631 7.631 0 017.632 7.632z" fill="#EAC6BB"/><path d="M11.193 0c-.346 0-.684.031-1.018.075 3.731.499 6.614 3.685 6.614 7.557v3.561a7.634 7.634 0 01-4.07 6.751 7.6 7.6 0 01-2.544.811 7.625 7.625 0 008.65-7.562V7.632A7.631 7.631 0 0011.193 0z" fill="#D3B1A9"/><path d="M22.386 24.93v3.561a.51.51 0 01-.509.51h-3.561V20.86a4.07 4.07 0 014.07 4.07zM4.07 20.86V29H.51a.51.51 0 01-.51-.509V24.93a4.07 4.07 0 014.07-4.07z" fill="#EAC6BB"/><path d="M18.316 20.86V29H4.07v-8.14h3.053v2.538c0 1.018 1.526 2.036 4.07 2.036 2.544 0 4.07-1.018 4.07-2.036V20.86h3.053z" fill="#EAC6BB"/><path d="M18.316 20.86H16.28a4.07 4.07 0 014.07 4.07v3.561a.51.51 0 01-.509.51h2.035a.51.51 0 00.509-.51V24.93a4.07 4.07 0 00-4.07-4.07z" fill="#D3B1A9"/><path d="M18.316 20.86H16.28c.742 0 1.436.201 2.035.548v-.548z" fill="#D3B1A9"/><path d="M7.123 20.86h.509v-2.915c1.063.56 2.274.88 3.561.88s2.498-.32 3.561-.88v2.915h.51v2.539c0 1.017-1.527 2.035-4.071 2.035-2.544 0-4.07-1.018-4.07-2.035V20.86z" fill="#EAC6BB"/></svg>