<svg width="23" height="29" viewBox="0 0 23 29" fill="none" xmlns="http://www.w3.org/2000/svg">
<path d="M18.8246 7.63158V11.193C18.8246 14.1184 17.1766 16.6623 14.7544 17.9444C13.6911 18.504 12.4802 18.8246 11.193 18.8246C9.9063 18.8246 8.69542 18.504 7.63158 17.9444C5.20982 16.6623 3.5614 14.1184 3.5614 11.193V7.63158C3.5614 3.41386 6.97526 0 11.193 0C15.4056 0 18.8246 3.41386 18.8246 7.63158Z" fill="#EAC6BB"/>
<path d="M11.193 0C10.8465 0 10.5087 0.031035 10.1749 0.0752981C13.9063 0.573895 16.7895 3.76033 16.7895 7.63158V11.193C16.7895 14.1184 15.1416 16.6623 12.7193 17.9444C11.9414 18.3545 11.0836 18.6338 10.1754 18.7554C10.5082 18.7996 10.8475 18.8246 11.193 18.8246C12.4802 18.8246 13.691 18.504 14.7544 17.9444C17.1766 16.6623 18.8246 14.1184 18.8246 11.193V7.63158C18.8246 3.41386 15.4056 0 11.193 0Z" fill="#D3B1A9"/>
<path d="M22.386 24.9299V28.4913C22.386 28.7711 22.1575 29.0001 21.8772 29.0001H18.3158V20.8597C20.5646 20.8597 22.386 22.6811 22.386 24.9299Z" fill="#EAC6BB"/>
<path d="M4.07018 20.8597V29.0001H0.508772C0.228947 29.0001 0 28.7711 0 28.4913V24.9299C0 22.6811 1.8214 20.8597 4.07018 20.8597Z" fill="#EAC6BB"/>
<path d="M18.3158 20.8597V29.0001H4.07019V20.8597H7.12282V23.3985C7.12282 24.4161 8.64914 25.4336 11.193 25.4336C13.7369 25.4336 15.2632 24.4161 15.2632 23.3985V20.8597H18.3158Z" fill="#EAC6BB"/>
<path d="M18.3158 20.8597H16.2807C18.5295 20.8597 20.3509 22.6811 20.3509 24.9299V28.4913C20.3509 28.7711 20.1224 29.0001 19.8421 29.0001H21.8772C22.1575 29.0001 22.386 28.7711 22.386 28.4913V24.9299C22.386 22.6811 20.5646 20.8597 18.3158 20.8597Z" fill="#D3B1A9"/>
<path d="M18.3158 20.8597H16.2807C17.023 20.8597 17.7165 21.0612 18.3158 21.4082V20.8597Z" fill="#D3B1A9"/>
<path d="M7.1228 20.86H7.63157V17.9447C8.69542 18.5044 9.90629 18.8249 11.193 18.8249C12.4802 18.8249 13.691 18.5044 14.7544 17.9447V20.86H15.2632V23.3987C15.2632 24.4163 13.7368 25.4338 11.193 25.4338C8.64912 25.4338 7.1228 24.4163 7.1228 23.3987V20.86Z" fill="#EAC6BB"/>
</svg>
