<svg width="23" height="31" viewBox="0 0 23 31" fill="none" xmlns="http://www.w3.org/2000/svg">
<path d="M3.29223 13.7705C3.01563 13.7705 2.79114 13.5465 2.79114 13.2694C2.79114 12.9923 3.01563 12.7684 3.29223 12.7684C3.56833 12.7684 3.79332 12.5439 3.79332 12.2673C3.79332 11.9902 4.0178 11.7662 4.29441 11.7662C4.57101 11.7662 4.7955 11.9902 4.7955 12.2673C4.7955 13.0961 4.12103 13.7705 3.29223 13.7705Z" fill="#434A54"/>
<path d="M19.3271 13.7705C18.4983 13.7705 17.8239 13.0961 17.8239 12.2673C17.8239 11.9902 18.0478 11.7662 18.3249 11.7662C18.602 11.7662 18.826 11.9902 18.826 12.2673C18.826 12.5439 19.0505 12.7684 19.3271 12.7684C19.6042 12.7684 19.8282 12.9923 19.8282 13.2694C19.8282 13.5465 19.6042 13.7705 19.3271 13.7705Z" fill="#353B44"/>
<path d="M22.3336 26.7989V30.3065C22.3336 30.5821 22.1081 30.8076 21.8325 30.8076H12.8129L15.8195 26.7989L14.8173 25.7967L16.8216 23.7923L15.8195 22.7902H18.3249C20.5397 22.7902 22.3336 24.5836 22.3336 26.7989Z" fill="#AAB2BD"/>
<path d="M18.3249 22.7902H16.3206C18.5354 22.7902 20.3293 24.5836 20.3293 26.7989V30.3065C20.3293 30.5821 20.1038 30.8076 19.8282 30.8076H21.8325C22.1081 30.8076 22.3336 30.5821 22.3336 30.3065V26.7989C22.3336 24.5836 20.5397 22.7902 18.3249 22.7902Z" fill="#959CA5"/>
<path d="M15.8195 22.79L16.8217 23.7921L14.8173 25.7965L15.8195 26.7987L12.813 30.8074H11.3097L14.231 23.291L14.8173 21.7878L15.8195 22.79Z" fill="#CCD1D9"/>
<path d="M6.79987 26.7989L9.80641 30.8076H0.786795C0.511196 30.8076 0.285706 30.5821 0.285706 30.3065V26.7989C0.285706 24.5836 2.07961 22.7902 4.29442 22.7902H6.79987L5.79769 23.7923L7.80205 25.7967L6.79987 26.7989Z" fill="#AAB2BD"/>
<path d="M8.3883 23.291L11.3097 30.8074H9.80638L6.79985 26.7987L7.80203 25.7965L5.79767 23.7921L6.79985 22.79L7.80203 21.7878L8.3883 23.291Z" fill="#CCD1D9"/>
<path d="M14.231 23.2911L11.3097 30.8074L8.38831 23.2911C8.38831 23.2911 9.3053 24.2933 11.3097 24.2933C13.314 24.2933 14.231 23.2911 14.231 23.2911Z" fill="#ED5565"/>
<path d="M14.8173 19.9186V21.7876L14.231 23.2909C14.231 23.2909 13.314 24.2931 11.3097 24.2931C9.30533 24.2931 8.38834 23.2909 8.38834 23.2909L7.80206 21.7876V19.9186C8.84934 20.4698 10.0419 20.7855 11.3097 20.7855C12.5769 20.7855 13.77 20.4693 14.8173 19.9186Z" fill="#EAC6BB"/>
<path d="M3.79333 12.2672C4.62514 12.2672 5.2966 12.9386 5.2966 13.7704C5.2966 16.2608 7.31599 18.2802 9.80641 18.2802L10.3075 17.7791H12.3119L12.8129 18.2802C15.3039 18.2802 17.3228 16.2608 17.3228 13.7704C17.3228 12.9386 17.9942 12.2672 18.826 12.2672V13.2693C18.826 16.1506 17.2025 18.656 14.8173 19.9188C13.77 20.47 12.5769 20.7857 11.3097 20.7857C10.0419 20.7857 8.84933 20.4695 7.80205 19.9188C5.41686 18.656 3.79333 16.1506 3.79333 13.2693V12.2672Z" fill="#656D78"/>
<path d="M18.826 10.7639V12.2672C17.9942 12.2672 17.3228 12.9386 17.3228 13.7705C17.3228 16.2609 15.3039 18.2803 12.8129 18.2803L12.3119 17.7792H10.3075L9.80641 18.2803C7.31599 18.2803 5.2966 16.2609 5.2966 13.7705C5.2966 12.9386 4.62514 12.2672 3.79333 12.2672V10.7639V9.76174C3.79333 7.75738 6.79987 4.75085 11.3097 5.73298C15.8195 4.75085 18.826 7.75738 18.826 9.76174V10.7639Z" fill="#EAC6BB"/>
<path d="M18.792 9.37928C18.7794 9.30612 18.7549 9.23046 18.7353 9.1563C18.7203 9.09867 18.7103 9.04155 18.6912 8.98342C18.6542 8.87218 18.6061 8.76044 18.5554 8.64819C18.5449 8.62564 18.5384 8.6031 18.5269 8.58005C18.2012 7.90408 17.6179 7.22109 16.8222 6.6734V12.2671V13.2692C16.8222 14.7324 16.4018 16.0984 15.6772 17.2539C16.6819 16.4266 17.3228 15.1734 17.3228 13.7703C17.3228 12.9385 17.9942 12.2671 18.826 12.2671V10.7638V9.76161C18.826 9.63785 18.8145 9.50957 18.792 9.37928Z" fill="#D3B1A9"/>
<path d="M17.3227 13.7704C17.3227 15.1735 16.6819 16.4267 15.6767 17.254C14.9746 18.3734 13.9865 19.2969 12.8129 19.9183C12.0468 20.3217 11.2019 20.5968 10.3075 20.717C10.4683 20.7386 10.6307 20.7551 10.7946 20.7671C10.7981 20.7671 10.8021 20.7676 10.8056 20.7681C10.9719 20.7792 11.1403 20.7857 11.3097 20.7857C12.5769 20.7857 13.77 20.4695 14.8173 19.9188C17.2025 18.656 18.826 16.1506 18.826 13.2693V12.2672C17.9942 12.2672 17.3227 12.9386 17.3227 13.7704Z" fill="#434A54"/>
<path d="M20.3293 11.2649C20.0527 11.2649 19.8282 11.0404 19.8282 10.7638V9.76166C19.8282 6.77266 19.6478 3.44593 17.4936 1.79083C16.0755 0.701962 14.0501 0.521069 11.3096 1.23011C8.57018 0.52157 6.54428 0.701962 5.1257 1.79083C2.97151 3.44593 2.79112 6.77266 2.79112 9.76166V10.7638C2.79112 11.0404 2.56613 11.2649 2.29003 11.2649C2.01343 11.2649 1.78894 11.4889 1.78894 11.766C1.78894 12.0431 2.01343 12.2671 2.29003 12.2671C3.11883 12.2671 3.7933 11.5926 3.7933 10.7638V9.76166C3.7933 7.7573 6.79984 4.75077 11.3096 5.7329C15.8194 4.75077 18.826 7.7573 18.826 9.76166V10.7638C18.826 11.5926 19.5005 12.2671 20.3293 12.2671C20.6064 12.2671 20.8303 12.0431 20.8303 11.766C20.8303 11.4889 20.6064 11.2649 20.3293 11.2649Z" fill="#656D78"/>
<path d="M16.3205 9.26068H12.3118C12.0347 9.26068 11.8107 9.48467 11.8107 9.76177V10.2629H10.8086V9.76177C10.8086 9.48467 10.5846 9.26068 10.3075 9.26068H6.29876C6.02166 9.26068 5.79767 9.48467 5.79767 9.76177V11.7661C5.79767 12.0432 6.02166 12.2672 6.29876 12.2672H10.3075C10.5846 12.2672 10.8086 12.0432 10.8086 11.7661V11.265H11.8107V11.7661C11.8107 12.0432 12.0347 12.2672 12.3118 12.2672H16.3205C16.5976 12.2672 16.8216 12.0432 16.8216 11.7661V9.76177C16.8216 9.48467 16.5976 9.26068 16.3205 9.26068ZM9.80638 11.265H6.79985V10.2629H9.80638V11.265ZM15.8195 11.265H12.8129V10.2629H15.8195V11.265Z" fill="#656D78"/>
<path d="M20.3293 11.2649C20.0527 11.2649 19.8282 11.0404 19.8282 10.7638V9.7616C19.8282 6.7726 19.6478 3.44587 17.4937 1.79077C16.4163 0.963475 14.9857 0.663323 13.1597 0.876286C14.0667 0.997549 14.8444 1.2957 15.4893 1.79077C17.1048 3.03197 17.6099 5.21271 17.7617 7.48616C18.4447 8.22376 18.826 9.05406 18.826 9.7616V10.7638C18.826 11.5926 19.5005 12.267 20.3293 12.267C20.6064 12.267 20.8304 12.0431 20.8304 11.766C20.8304 11.4889 20.6064 11.2649 20.3293 11.2649Z" fill="#434A54"/>
<path d="M10.8086 1.11688V5.64873C10.975 5.67529 11.1388 5.69584 11.3097 5.73292C11.4806 5.69584 11.6444 5.67529 11.8108 5.64873V1.11688C11.6439 1.15446 11.4826 1.18553 11.3097 1.23013C11.1368 1.18553 10.9755 1.15446 10.8086 1.11688Z" fill="#434A54"/>
</svg>
