<svg width="21" height="31" viewBox="0 0 21 31" fill="none" xmlns="http://www.w3.org/2000/svg">
<path d="M14.3304 30.7081V30.7143H6.1416V30.7081L10.236 26.6137L14.3304 30.7081Z" fill="#ED5565"/>
<path d="M7.16522 19.8384C8.10694 20.2474 9.1459 20.4782 10.236 20.4782C11.3262 20.4782 12.3651 20.2474 13.3069 19.8384V20.4782V22.5254C13.3069 22.5254 12.795 24.0608 10.236 24.0608C7.67702 24.0608 7.16522 22.5254 7.16522 22.5254V20.4782V19.8384Z" fill="#EAC6BB"/>
<path d="M7.16523 22.5255C7.16523 22.5255 7.67704 24.0609 10.236 24.0609C12.7951 24.0609 13.3069 22.5255 13.3069 22.5255H17.4013C19.1005 22.5255 20.4721 23.8971 20.4721 25.5963V30.2025C20.4721 30.4835 20.2418 30.7143 19.9603 30.7143H14.3305V30.7081L10.236 26.6137L6.14163 30.7081V30.7143H0.511802C0.230311 30.7143 0 30.4835 0 30.2025V25.5963C0 23.8971 1.37163 22.5255 3.07081 22.5255H7.16523Z" fill="#48CFAD"/>
<path d="M17.4013 22.5255H15.3541C17.0532 22.5255 18.4249 23.8971 18.4249 25.5963V30.2025C18.4249 30.4835 18.1946 30.7143 17.9131 30.7143H19.9603C20.2418 30.7143 20.4721 30.4835 20.4721 30.2025V25.5963C20.4721 23.8971 19.1005 22.5255 17.4013 22.5255Z" fill="#37BC9B"/>
<path d="M17.9131 11.23C10.9986 10.948 5.62981 8.77792 5.62981 6.14214V1.33171L5.58887 1.25955C6.95538 0.461134 8.54197 0 10.236 0C15.3233 0 19.4485 4.12564 19.4485 9.21244V11.2597C18.9264 11.2597 18.4146 11.2499 17.9131 11.23Z" fill="#FFCE54"/>
<path d="M10.236 0C9.89159 0 9.55277 0.0240547 9.21857 0.0609045C13.8207 0.57373 17.4013 4.47418 17.4013 9.21244V11.2039C17.5712 11.2141 17.7411 11.2228 17.9131 11.23C18.4146 11.2499 18.9264 11.2602 19.4485 11.2602V9.21295C19.4485 4.12564 15.3233 0 10.236 0Z" fill="#F6BB42"/>
<path d="M5.62984 6.1416C5.62984 8.77738 10.9986 10.9479 17.9131 11.2294V12.8012C17.9131 15.9477 16.0194 18.6511 13.3069 19.8385C12.3652 20.2474 11.3262 20.4782 10.2361 20.4782C9.14592 20.4782 8.10696 20.2474 7.16524 19.8385C4.45269 18.6511 2.55902 15.9477 2.55902 12.8012V10.4873C4.35033 9.85217 5.62984 8.14787 5.62984 6.1416Z" fill="#EAC6BB"/>
<path d="M15.8659 11.0866V12.8011C15.8659 15.9477 13.9722 18.6511 11.2597 19.8384C10.6184 20.1174 9.92899 20.3052 9.21246 20.4014C9.54821 20.4465 9.88804 20.4782 10.2361 20.4782C11.3262 20.4782 12.3652 20.2474 13.3069 19.8384C16.0194 18.6511 17.9131 15.9477 17.9131 12.8011V11.2299C17.2135 11.2007 16.5302 11.1526 15.8659 11.0866Z" fill="#D3B1A9"/>
<path d="M5.638 6.27154C5.63544 6.22855 5.62981 6.18556 5.62981 6.14154C5.62981 6.18248 5.62572 6.22241 5.62469 6.26335C5.6293 6.26642 5.6334 6.26949 5.638 6.27154Z" fill="#D3B1A9"/>
<path d="M13.3069 19.8384C16.0194 18.6511 17.9131 15.9477 17.9131 12.8012V11.2299C18.4147 11.2499 18.9265 11.2601 19.4485 11.2601V19.449V19.4546C19.4485 20.0176 18.993 20.4782 18.4249 20.4782H13.3069V19.8384Z" fill="#EDAB37"/>
<path d="M2.55903 12.8012C2.55903 15.9477 4.4527 18.6511 7.16525 19.8385V20.4782H2.04723C1.47912 20.4782 1.02362 20.0176 1.02362 19.4546V10.7478C1.56101 10.7478 2.07793 10.6557 2.55903 10.4868V12.8012Z" fill="#EDAB37"/>
<path d="M1.02362 10.7478V9.21242C1.02362 5.81968 2.85587 2.85583 5.5889 1.25952L5.62984 1.33169V6.1416C5.62984 8.14787 4.35034 9.85217 2.55903 10.4868C2.07793 10.6562 1.56101 10.7478 1.02362 10.7478Z" fill="#F6BB42"/>
</svg>
