<svg width="20" height="31" viewBox="0 0 20 31" fill="none" xmlns="http://www.w3.org/2000/svg">
<path d="M20 26.0001V30.5001C20 30.7751 19.775 31.0001 19.5 31.0001H11L14.5 23.0001H17C18.66 23.0001 20 24.3446 20 26.0001Z" fill="#FFCE54"/>
<path d="M5.5 23.0001L9 31.0001H0.5C0.225 31.0001 0 30.7751 0 30.5001V26.0001C0 24.3446 1.34 23.0001 3 23.0001H5.5Z" fill="#FFCE54"/>
<path d="M7 23.0001L9 24.0001L10 23.5001L11 24.0001L13 23.0001H14.5L11 31.0001H9L5.5 23.0001H7Z" fill="#E6E9ED"/>
<path d="M17 23.0001H15C16.66 23.0001 18 24.3446 18 26.0001V30.5001C18 30.7751 17.775 31.0001 17.5 31.0001H19.5C19.775 31.0001 20 30.7751 20 30.5001V26.0001C20 24.3446 18.66 23.0001 17 23.0001Z" fill="#F6BB42"/>
<path d="M13 20.3751V23.0001L11 24.0001L10 23.5001L9 24.0001L7 23.0001V20.3751C7.92 20.7751 8.935 21.0001 10 21.0001C11.065 21.0001 12.08 20.7751 13 20.3751Z" fill="#F5F7FA"/>
<path d="M17.75 0C18.995 0 20 1.01 20 2.25C20 3.495 18.995 4.5 17.75 4.5C17.355 4.5 16.985 4.4 16.66 4.22C16.245 3.985 15.91 3.63 15.705 3.19C15.575 2.905 15.5 2.585 15.5 2.25C15.5 1.01 16.51 0 17.75 0Z" fill="#353B44"/>
<path d="M2.25 0C3.49 0 4.5 1.01 4.5 2.25C4.5 2.595 4.425 2.92 4.285 3.21C4.085 3.635 3.75 3.99 3.3395 4.22C3.015 4.4 2.645 4.5 2.25 4.5C1.005 4.5 0 3.495 0 2.25C0 1.01 1.005 0 2.25 0Z" fill="#434A54"/>
<path d="M8 10.5001H6H4H2.5H1.5V9.50012C1.5 7.50512 2.19 5.67012 3.34 4.22012C3.75 3.99012 4.085 3.63512 4.2855 3.21012C5.795 1.83512 7.8 1.00012 10 1.00012C12.195 1.00012 14.19 1.83012 15.7 3.19512L15.705 3.19012C15.91 3.63012 16.245 3.98512 16.66 4.22012C17.81 5.67012 18.5 7.50512 18.5 9.50012V10.5001H17.5H16H14H12H10H8Z" fill="#656D78"/>
<path d="M16.66 4.22012C16.245 3.98512 15.91 3.63012 15.705 3.19012L15.7 3.19512C14.19 1.83012 12.195 1.00012 9.99997 1.00012C9.66197 1.00012 9.33097 1.02612 9.00397 1.06462C13.224 1.56212 16.5 5.14612 16.5 9.50012V10.5001H17.5H18.5V9.50012C18.5 7.50512 17.81 5.67012 16.66 4.22012Z" fill="#434A54"/>
<path d="M10.015 26.5001C9.73851 26.5001 9.51251 26.2766 9.51251 26.0001C9.51251 25.7236 9.73351 25.5001 10.0095 25.5001H10.015C10.291 25.5001 10.515 25.7236 10.515 26.0001C10.515 26.2766 10.291 26.5001 10.015 26.5001Z" fill="#656D78"/>
<path d="M10.015 28.5C9.73851 28.5 9.51251 28.2765 9.51251 28C9.51251 27.7235 9.73351 27.5 10.0095 27.5H10.015C10.291 27.5 10.515 27.7235 10.515 28C10.515 28.2765 10.291 28.5 10.015 28.5Z" fill="#656D78"/>
<path d="M4 11.0004C3.7235 11.0004 3.5 10.7764 3.5 10.5004V9.50037C3.5 9.22437 3.7235 9.00037 4 9.00037C4.2765 9.00037 4.5 9.22437 4.5 9.50037V10.5004C4.5 10.7764 4.2765 11.0004 4 11.0004Z" fill="#434A54"/>
<path d="M6 11.0004C5.7235 11.0004 5.5 10.7764 5.5 10.5004V9.50037C5.5 9.22437 5.7235 9.00037 6 9.00037C6.2765 9.00037 6.5 9.22437 6.5 9.50037V10.5004C6.5 10.7764 6.2765 11.0004 6 11.0004Z" fill="#434A54"/>
<path d="M8 11.0004C7.7235 11.0004 7.5 10.7764 7.5 10.5004V9.50037C7.5 9.22437 7.7235 9.00037 8 9.00037C8.2765 9.00037 8.5 9.22437 8.5 9.50037V10.5004C8.5 10.7764 8.2765 11.0004 8 11.0004Z" fill="#434A54"/>
<path d="M10 11.0004C9.7235 11.0004 9.5 10.7764 9.5 10.5004V9.50037C9.5 9.22437 9.7235 9.00037 10 9.00037C10.2765 9.00037 10.5 9.22437 10.5 9.50037V10.5004C10.5 10.7764 10.2765 11.0004 10 11.0004Z" fill="#434A54"/>
<path d="M12 11.0004C11.7235 11.0004 11.5 10.7764 11.5 10.5004V9.50037C11.5 9.22437 11.7235 9.00037 12 9.00037C12.2765 9.00037 12.5 9.22437 12.5 9.50037V10.5004C12.5 10.7764 12.2765 11.0004 12 11.0004Z" fill="#434A54"/>
<path d="M14 11.0004C13.7235 11.0004 13.5 10.7764 13.5 10.5004V9.50037C13.5 9.22437 13.7235 9.00037 14 9.00037C14.2765 9.00037 14.5 9.22437 14.5 9.50037V10.5004C14.5 10.7764 14.2765 11.0004 14 11.0004Z" fill="#434A54"/>
<path d="M16 11.0004C15.7235 11.0004 15.5 10.7764 15.5 10.5004V9.50037C15.5 9.22437 15.7235 9.00037 16 9.00037C16.2765 9.00037 16.5 9.22437 16.5 9.50037V10.5004C16.5 10.7764 16.2765 11.0004 16 11.0004Z" fill="#434A54"/>
<path d="M17.5 10.5001V13.5001C17.5 16.5751 15.65 19.2196 13 20.3751C12.08 20.7751 11.065 21.0001 10 21.0001C8.935 21.0001 7.92 20.7751 7 20.3751C4.35 19.2196 2.5 16.5801 2.5 13.5001V10.5001H4H6H8H10H12H14H16H17.5Z" fill="#EAC6BB"/>
<path d="M16 10.5001H15.5V13.5001C15.5 16.5751 13.65 19.2196 11 20.3751C10.3735 20.6476 9.7 20.8311 9 20.9256C9.328 20.9691 9.66 21.0001 10 21.0001C11.065 21.0001 12.08 20.7751 13 20.3751C15.65 19.2196 17.5 16.5751 17.5 13.5001V10.5001H16Z" fill="#D3B1A9"/>
</svg>
