<svg width="30" height="30" viewBox="0 0 30 30" fill="none" xmlns="http://www.w3.org/2000/svg">
<path d="M21.8847 19.2333C21.8847 20.6817 18.717 21.8553 14.8096 21.8553C10.9022 21.8553 7.7345 20.6817 7.7345 19.2333C7.7345 17.785 10.9021 16.6113 14.8096 16.6113C18.717 16.6113 21.8847 17.785 21.8847 19.2333Z" fill="#A0D468"/>
<path d="M26.6013 16.8164C26.6013 18.2565 21.2758 19.4237 14.707 19.4237C8.13827 19.4237 2.81274 18.2565 2.81274 16.8164C2.81274 15.3763 8.13827 14.209 14.707 14.209C21.2758 14.209 26.6013 15.3763 26.6013 16.8164Z" fill="#A0D468"/>
<path d="M19.3753 7.73542L19.8824 5.00079L18.847 2.77429L17.4216 1.21153L15.6253 0.587158H13.5938L11.9926 1.56304L10.7419 2.89148L10.3126 6.24954L11.2418 8.32136L11.836 9.8448L11.9532 13.2432L11.6794 16.2506L13.4336 16.7587H16.5628L18.3206 16.4072L17.8125 13.2038L18.067 9.41449L19.3753 7.73542Z" fill="#FBFDFF"/>
<path d="M18.5549 21.6804L18.3993 23.6525L17.9892 25.3324L17.2073 26.4456L16.2698 27.2659L14.1806 27.1094L12.7543 26.4648L11.4854 24.6293L11.3874 21.6804L9.45386 21.0743L9.62964 21.8553L9.45386 24.7272L10.3126 26.8164L12.0127 28.3206L14.2584 29.3359L16.1334 29.1995L18.2034 28.3792L20.2935 26.2891L20.5086 23.5353V20.6843L18.5549 21.6804Z" fill="#FFCE54"/>
<path d="M26.4235 14.8478C25.798 14.5368 24.9209 14.2613 23.8152 14.0282C22.4091 13.7323 20.7107 13.5214 18.8607 13.4071C18.6862 12.0356 18.9298 10.4204 19.1292 9.55749C20.3261 8.52087 21.0084 7.03328 21.0084 5.44384C21.0084 2.44206 18.5665 0.000244141 15.5648 0.000244141C12.5631 0.000244141 10.1213 2.44206 10.1213 5.44384C10.1213 7.03333 10.8026 8.52002 11.9978 9.55573C12.0811 9.92783 12.2601 10.8192 12.3141 11.8292C12.346 12.4139 12.3309 12.9411 12.2725 13.4072C10.4208 13.5206 8.7214 13.7323 7.31444 14.0283C6.20869 14.2613 5.33158 14.5368 4.70607 14.8478C3.88476 15.2571 3.46832 15.7559 3.46832 16.3309C3.46832 16.906 3.88476 17.4047 4.70607 17.814C5.32007 18.1188 6.17683 18.3899 7.25331 18.6203C7.72821 19.3574 8.51051 20.006 9.51611 20.5199V22.9848C9.51611 26.3196 12.2299 29.0325 15.5648 29.0325C18.8997 29.0325 21.6135 26.3196 21.6135 22.9848V20.3232C22.4083 19.8651 23.0382 19.3167 23.4555 18.7054C23.5778 18.6824 23.6974 18.6584 23.8152 18.6336C24.9209 18.4006 25.798 18.125 26.4235 17.814C27.2449 17.4047 27.6613 16.9059 27.6613 16.3309C27.6613 15.7559 27.2449 15.2571 26.4235 14.8478ZM11.3306 5.44379C11.3306 3.10919 13.2302 1.21049 15.5648 1.21049C17.8995 1.21049 19.799 3.10914 19.799 5.44379C19.799 6.73558 19.2195 7.93964 18.2104 8.74854C18.1085 8.83008 18.0359 8.94349 18.0031 9.07017C17.9907 9.12069 17.6859 10.3159 17.6088 11.7583C17.5238 13.3415 17.74 14.5873 18.2539 15.4777C17.7444 15.6062 16.8788 15.7267 15.5569 15.7267C14.1685 15.7267 13.3454 15.5973 12.8785 15.4777C13.3915 14.5908 13.6077 13.3468 13.5218 11.7645C13.4447 10.3203 13.139 9.12069 13.1266 9.07017C13.0938 8.94349 13.0212 8.83008 12.9193 8.74854C11.9101 7.93964 11.3306 6.73558 11.3306 5.44379ZM20.4032 22.9848C20.4032 25.6515 18.2326 27.8223 15.5648 27.8223C12.8971 27.8223 10.7264 25.6516 10.7264 22.9848V21.0355C10.9196 21.1029 11.1189 21.1667 11.3227 21.2269V22.9848C11.3227 25.3184 13.2223 27.218 15.5569 27.218C17.8915 27.218 19.7902 25.3184 19.7902 22.9848V21.1197C20.001 21.0515 20.2056 20.9779 20.4033 20.9V22.9848H20.4032ZM12.5321 21.5158C13.4217 21.6841 14.3802 21.7745 15.3832 21.7745C16.5182 21.7745 17.5964 21.6575 18.5808 21.4449V22.9848C18.5808 24.6521 17.2243 26.0078 15.5569 26.0078C13.8895 26.0078 12.5321 24.6522 12.5321 22.9848V21.5158ZM20.7895 19.3946C19.356 20.1495 17.4352 20.5642 15.3832 20.5642C13.3304 20.5642 11.4103 20.1495 9.97599 19.3946C9.72082 19.26 9.48691 19.1164 9.27603 18.9676C11.1393 19.2192 13.3047 19.3557 15.5648 19.3557C17.647 19.3557 19.6484 19.2405 21.408 19.0243C21.2183 19.1536 21.0128 19.2777 20.7895 19.3946ZM23.2872 17.5066C21.19 17.9186 18.4479 18.1454 15.5648 18.1454C12.6818 18.1454 9.93964 17.9186 7.84247 17.5066C5.25537 16.999 4.76102 16.4408 4.68657 16.3309C4.76097 16.221 5.25537 15.6629 7.84247 15.1552C9.03412 14.9213 10.434 14.7468 11.9499 14.6404C11.8303 14.9045 11.6833 15.1242 11.5087 15.2979C11.2792 15.5265 11.2704 15.895 11.4892 16.1343C11.7099 16.3753 12.5462 16.9352 15.5568 16.9352C18.5621 16.9352 19.4092 16.3797 19.6342 16.1405C19.8574 15.903 19.8529 15.5309 19.6227 15.2996C19.4428 15.118 19.2984 14.8939 19.1832 14.6404C20.6973 14.7468 22.0964 14.9213 23.2872 15.1552C25.8742 15.6629 26.3686 16.2211 26.443 16.3309C26.3686 16.4408 25.8743 16.999 23.2872 17.5066Z" fill="#525252"/>
</svg>
